<?xml version="1.0" standalone="no"?>
<!DOCTYPE svg PUBLIC "-//W3C//DTD SVG 20010904//EN"
 "http://www.w3.org/TR/2001/REC-SVG-20010904/DTD/svg10.dtd">
<svg version="1.0" xmlns="http://www.w3.org/2000/svg"
 width="512.000000pt" height="512.000000pt" viewBox="0 0 512.000000 512.000000"
 preserveAspectRatio="xMidYMid meet">
<metadata>
Created by potrace 1.14, written by Peter Selinger 2001-2017
</metadata>
<g transform="translate(0.000000,512.000000) scale(0.100000,-0.100000)"
fill="#000000" stroke="none">
<path d="M1697 4630 l-399 -5 -24 -28 -24 -28 0 -654 c0 -444 3 -662 11 -678
25 -54 -45 -51 1289 -53 1337 -1 1283 -3 1309 52 8 18 11 212 11 680 l0 656
-29 29 -29 29 -694 0 c-381 0 -767 2 -858 3 -91 1 -344 0 -563 -3z"/>
<path d="M4302 3648 c-5 -7 -13 -33 -17 -58 -9 -57 -11 -66 -30 -175 -9 -49
-18 -108 -22 -130 -3 -22 -17 -106 -32 -186 -15 -80 -24 -156 -21 -170 6 -24
8 -24 139 -29 l133 -5 0 -870 c-1 -478 -1 -890 -1 -915 l-1 -45 -95 -1 c-93 0
-96 -1 -126 -30 -30 -30 -31 -34 -31 -125 0 -52 -4 -98 -8 -104 -5 -6 -136 -9
-362 -9 -194 1 -356 2 -359 3 -4 1 -7 60 -8 131 l-1 130 52 1 c29 0 91 1 138
1 107 0 156 20 189 78 21 37 22 51 19 163 -3 107 -6 126 -25 153 -38 53 -75
64 -217 64 l-126 0 0 298 c0 286 -1 299 -20 320 l-20 22 -889 -1 c-869 0 -889
-1 -910 -20 -20 -19 -21 -27 -21 -319 l0 -300 -27 0 c-222 -3 -248 -6 -274
-25 -58 -44 -64 -60 -66 -197 -1 -116 0 -130 20 -159 47 -68 61 -73 227 -74
l149 0 0 -131 c1 -117 -1 -132 -17 -136 -9 -2 -188 -3 -397 -3 l-380 1 1 25
c1 27 9 79 29 194 8 44 17 94 19 110 3 17 17 97 31 179 23 139 24 151 8 168
-11 13 -29 18 -60 16 -24 -1 -46 2 -49 5 -4 3 10 25 29 47 38 45 106 176 132
255 50 154 74 326 70 505 -8 334 -101 610 -255 754 -257 241 -562 -22 -644
-554 -19 -125 -15 -383 8 -509 21 -116 59 -237 98 -316 36 -71 107 -175 120
-175 5 0 7 -4 4 -8 -2 -4 -30 -7 -61 -6 -54 2 -85 -12 -85 -36 0 -5 14 -89 30
-187 17 -98 33 -193 36 -212 3 -18 8 -43 10 -55 10 -53 26 -153 28 -175 l1
-24 -125 -1 c-136 -1 -171 -12 -212 -66 -49 -67 -27 -172 46 -215 l42 -25
2446 0 c2190 -1 2450 0 2476 14 74 38 105 150 60 215 -40 60 -69 74 -157 79
l-79 4 -4 104 c-3 98 -5 105 -31 131 -28 29 -30 29 -193 32 l-31 1 0 915 0
914 91 -1 c173 -1 175 -1 182 26 6 25 -9 124 -91 585 -2 13 -7 45 -11 70 -12
86 3 81 -243 81 -163 0 -221 -3 -229 -12z m-1151 -2598 c2 -45 -2 -244 -5
-249 -5 -7 -1163 -7 -1171 0 -5 5 -8 121 -6 224 l1 40 590 0 c518 0 590 -2
591 -15z"/>
</g>
</svg>
